<svg version="1.1" xmlns="http://www.w3.org/2000/svg" viewBox="0 0 1418.6217118520558 479.94051760718776" width="4255.865135556167" height="1439.8215528215633">
  <!-- svg-source:excalidraw -->
  
  <defs>
    <style>
      @font-face {
        font-family: "Virgil";
        src: url("https://excalidraw.com/Virgil.woff2");
      }
      @font-face {
        font-family: "Cascadia";
        src: url("https://excalidraw.com/Cascadia.woff2");
      }
    </style>
  </defs>
  <rect x="0" y="0" width="1418.6217118520558" height="479.94051760718776" fill="#ffffff"></rect><g stroke-linecap="round" transform="translate(11.000091552735284 160.50800444587549) rotate(0 198.66665649414062 16)"><path d="M-0.52 0.63 C91 -1.25, 183.07 -0.97, 398.23 -0.28 M-0.51 0.07 C88.16 -2.08, 177.42 -2.58, 397.1 0.13 M397.44 -0.78 C398.6 7.01, 399.03 15.82, 395.55 30.02 M397.05 0.54 C397.14 11.37, 398.09 24.04, 396.65 31.97 M396.98 32.94 C304.9 32.65, 211.37 32.92, 0.06 31.61 M397.66 31.45 C239.48 31.59, 80.25 31.66, 0.1 31.49 M0.16 32.23 C-1.64 20.01, -1.1 5.75, 1.98 -0.91 M0.79 31.64 C0 21.33, -0.73 10.68, -0.93 -0.81" stroke="#087f5b" stroke-width="1" fill="none"></path></g><g stroke-linecap="round"><g transform="translate(61.000091552735284 161.8413326929458) rotate(0 0.33804608277444004 15.62945823406335)"><path d="M0.67 -0.23 C0.71 5.3, 1.01 27.13, 1.14 32.66 M-0.44 -1.4 C-0.6 3.83, 0.19 25.47, 0.44 30.88" stroke="#087f5b" stroke-width="1" fill="none"></path></g></g><g stroke-linecap="round"><g transform="translate(111.66673278808685 159.50798918708642) rotate(0 0.3461980861658276 16.45000297938941)"><path d="M0.47 0.66 C0.6 6.19, 1.45 27.87, 1.43 32.94 M-0.74 -0.04 C-0.76 5.19, 0.85 25.98, 0.89 31.31" stroke="#087f5b" stroke-width="1" fill="none"></path></g></g><g stroke-linecap="round"><g transform="translate(160.66676330566497 160.50798918708642) rotate(0 0.019104086630932215 16.259130581570844)"><path d="M0.77 0.94 C0.75 6.01, 0.46 25.7, 0.37 31.08 M-0.29 0.39 C-0.53 5.52, -0.66 26.95, -0.73 32.13" stroke="#087f5b" stroke-width="1" fill="none"></path></g></g><g stroke-linecap="round"><g transform="translate(211.00007629394622 162.1746609400161) rotate(0 0.4289110346603593 16.131691218912692)"><path d="M-0.29 -0.92 C-0.38 4.45, 0.28 27.67, 0.26 33.18 M1.75 1.21 C1.41 6.2, -0.93 26.3, -0.9 31.68" stroke="#087f5b" stroke-width="1" fill="none"></path></g></g><g stroke-linecap="round"><g transform="translate(258.666763305665 158.50798918708642) rotate(0 0.6923060512149277 17.253435741616386)"><path d="M-0.4 1.18 C-0.42 6.69, -0.39 26.94, -0.4 32.14 M1.59 0.76 C1.95 6.57, 1.71 28.84, 1.76 33.75" stroke="#087f5b" stroke-width="1" fill="none"></path></g></g><g stroke-linecap="round"><g transform="translate(310.0000762939462 160.8413326929458) rotate(0 0.3035001620590947 15.752395927063162)"><path d="M-1.06 0.14 C-1.07 5.33, -0.76 27.15, -0.46 32.34 M0.58 -0.84 C0.96 4.49, 1.76 24.89, 1.67 30.4" stroke="#087f5b" stroke-width="1" fill="none"></path></g></g><g stroke-linecap="round"><g transform="translate(359.3334503173837 158.84131743415674) rotate(0 -0.19422218948602676 15.960548061085774)"><path d="M-1.12 0.34 C-0.82 5.53, 0.52 25.96, 0.73 31.28 M0.49 -0.52 C0.73 4.8, 0.05 26.74, -0.18 32.45" stroke="#087f5b" stroke-width="1" fill="none"></path></g></g><g stroke-linecap="round"><g transform="translate(25.00006103515716 217.17467619880517) rotate(0 101.79513293600178 -0.2368537256959371)"><path d="M0.07 -0.72 C34.41 -0.78, 170.82 -0.29, 204.95 -0.02 M-1.36 1.52 C32.89 1.05, 169.56 -1.61, 203.74 -2" stroke="#087f5b" stroke-width="1" fill="none"></path></g></g><g stroke-linecap="round"><g transform="translate(26.666732788086847 246.17465331062158) rotate(0 180.788159254589 1.1624408150230465)"><path d="M-0.5 0.27 C59.44 0.88, 299.7 2.7, 359.69 2.95 M1.44 -0.63 C61.77 -0.26, 302 0.83, 362.07 1.46" stroke="#087f5b" stroke-width="1" fill="none"></path></g></g><g stroke-linecap="round" transform="translate(17.66674804687591 213.84134795173486) rotate(0 4 4)"><path d="M3.07 -0.21 C3.93 -0.49, 5.45 -0.01, 6.03 0.19 C6.61 0.39, 6.11 0.34, 6.56 0.98 C7 1.62, 8.71 3.08, 8.7 4.04 C8.68 5, 7.14 6.1, 6.46 6.76 C5.77 7.42, 5.51 7.8, 4.57 8.01 C3.63 8.22, 1.57 8.7, 0.82 8.04 C0.08 7.38, 0.16 5.16, 0.11 4.05 C0.05 2.94, -0.2 2.02, 0.49 1.37 C1.19 0.72, 3.72 0.22, 4.27 0.14 C4.82 0.06, 3.82 0.78, 3.78 0.9 M3.94 1.5 C4.43 1.55, 5.08 1.2, 5.89 1.34 C6.71 1.47, 8.44 1.72, 8.85 2.32 C9.27 2.92, 9.25 4.23, 8.39 4.95 C7.53 5.67, 4.68 6.42, 3.7 6.64 C2.71 6.86, 2.85 6.47, 2.49 6.25 C2.13 6.03, 1.92 5.87, 1.54 5.33 C1.16 4.78, 0.12 3.97, 0.19 2.98 C0.26 1.99, 1.23 0.03, 1.97 -0.61 C2.7 -1.25, 4.43 -1.21, 4.6 -0.84 C4.78 -0.48, 3.18 1.3, 3.04 1.59" stroke="#087f5b" stroke-width="1" fill="none"></path></g><g stroke-linecap="round" transform="translate(231.33340454101653 212.84131743415674) rotate(0 4 4)"><path d="M3.91 0.04 C4.47 -0.26, 4.28 -0.81, 5.04 -0.49 C5.8 -0.18, 8.05 1.01, 8.48 1.93 C8.91 2.85, 7.96 4.09, 7.65 5 C7.33 5.92, 7.42 6.78, 6.61 7.43 C5.79 8.08, 3.69 9.15, 2.76 8.9 C1.83 8.66, 1.49 6.87, 1.03 5.95 C0.57 5.04, -0.16 4.16, -0.03 3.43 C0.11 2.7, 1.26 2.01, 1.82 1.58 C2.38 1.15, 2.86 1.02, 3.33 0.84 C3.8 0.65, 4.56 0.44, 4.65 0.48 M3.09 0.09 C4.14 -0.43, 6.5 -0.75, 7.51 -0.44 C8.52 -0.12, 9.35 1.09, 9.13 1.97 C8.91 2.85, 6.78 4.09, 6.18 4.84 C5.58 5.59, 5.95 6.03, 5.55 6.47 C5.14 6.9, 4.59 7.53, 3.75 7.46 C2.91 7.38, 1.1 6.95, 0.51 6.03 C-0.07 5.11, 0.06 2.94, 0.25 1.93 C0.44 0.93, 1.25 0.08, 1.66 0 C2.06 -0.07, 2.4 1.39, 2.69 1.49 C2.99 1.58, 2.95 0.53, 3.41 0.56" stroke="#087f5b" stroke-width="1" fill="none"></path></g><g stroke-linecap="round" transform="translate(19.000030517579034 242.17469145759424) rotate(0 4 4)"><path d="M2.18 -0.88 C2.97 -1.22, 5.65 -0.7, 6.54 -0.2 C7.43 0.3, 7.23 1.23, 7.53 2.13 C7.84 3.02, 8.7 4.12, 8.37 5.15 C8.04 6.18, 6.37 7.93, 5.57 8.29 C4.77 8.65, 4.33 7.66, 3.58 7.29 C2.83 6.93, 1.51 6.59, 1.07 6.09 C0.63 5.6, 1.04 4.93, 0.94 4.32 C0.85 3.71, -0.08 3.09, 0.48 2.44 C1.04 1.78, 3.61 0.7, 4.29 0.41 C4.97 0.12, 4.64 0.78, 4.56 0.72 M6.75 -0.96 C7.86 -0.88, 8.92 0.25, 8.89 1.08 C8.86 1.91, 6.99 3.17, 6.57 4 C6.15 4.83, 6.7 5.46, 6.38 6.07 C6.06 6.69, 5.53 7.57, 4.64 7.69 C3.75 7.81, 1.79 7.59, 1.05 6.78 C0.3 5.98, 0.18 3.88, 0.17 2.85 C0.17 1.83, 0.74 0.87, 1 0.66 C1.27 0.44, 1.07 1.52, 1.77 1.57 C2.47 1.62, 4.29 0.91, 5.2 0.95 C6.12 1, 6.96 1.94, 7.24 1.83" stroke="#087f5b" stroke-width="1" fill="none"></path></g><g stroke-linecap="round" transform="translate(386.6667480468759 242.50800444587549) rotate(0 4 4)"><path d="M4.67 -0.62 C5.61 -0.57, 5.74 -0.04, 6.37 0.6 C7 1.24, 8.38 2.19, 8.46 3.24 C8.55 4.28, 7.37 6.25, 6.87 6.88 C6.37 7.52, 6.18 7.01, 5.48 7.05 C4.78 7.09, 3.34 7.28, 2.68 7.13 C2.02 6.98, 2 6.64, 1.51 6.15 C1.02 5.67, -0.34 5, -0.26 4.2 C-0.19 3.41, 1.11 1.97, 1.96 1.38 C2.81 0.8, 4.28 0.92, 4.83 0.68 C5.39 0.43, 5.17 0.09, 5.29 -0.06 M5.3 -1.43 C5.76 -1.43, 4.94 -0.82, 5.43 -0.24 C5.92 0.35, 7.7 1.08, 8.23 2.1 C8.76 3.11, 9.11 4.87, 8.61 5.84 C8.12 6.81, 6.27 7.81, 5.28 7.92 C4.3 8.02, 3.47 6.93, 2.69 6.44 C1.91 5.96, 1.3 5.32, 0.63 5.03 C-0.04 4.73, -1.36 5.29, -1.33 4.67 C-1.29 4.06, -0.3 1.9, 0.84 1.34 C1.98 0.78, 4.76 1.58, 5.51 1.28 C6.25 0.98, 5.45 -0.3, 5.29 -0.46" stroke="#087f5b" stroke-width="1" fill="none"></path></g><g transform="translate(32.3333740234375 164.71168384854263) rotate(0 106 11.5)"><text x="0" y="18" font-family="Helvetica, Segoe UI Emoji" font-size="20px" fill="#087f5b" text-anchor="start" style="white-space: pre;" direction="ltr">0       1       2       3       4</text></g><g transform="translate(174.55560641818556 28.637609209328275) rotate(0 43.5 17.261904761904816)"><text x="0" y="24.523809523809476" font-family="Virgil, Segoe UI Emoji" font-size="27.619047619047596px" fill="#087f5b" text-anchor="start" style="white-space: pre;" direction="ltr">vector</text></g><g transform="translate(252.1666259765625 206.81059414058382) rotate(0 25 8.5)"><text x="0" y="13" font-family="Cascadia, Segoe UI Emoji" font-size="13.933949120716681px" fill="#087f5b" text-anchor="start" style="white-space: pre;" direction="ltr">size()</text></g><g transform="translate(407 236.56354982890298) rotate(0 41.5 8.5)"><text x="0" y="13" font-family="Cascadia, Segoe UI Emoji" font-size="13.933949120716681px" fill="#087f5b" text-anchor="start" style="white-space: pre;" direction="ltr">capacity()</text></g><g transform="translate(10 98.89686281718423) rotate(0 29 8.5)"><text x="0" y="13" font-family="Cascadia, Segoe UI Emoji" font-size="13.933949120716681px" fill="#087f5b" text-anchor="start" style="white-space: pre;" direction="ltr">begin()</text></g><g transform="translate(259.3334045410156 98.23017580546548) rotate(0 21 8.5)"><text x="0" y="13" font-family="Cascadia, Segoe UI Emoji" font-size="13.933949120716681px" fill="#087f5b" text-anchor="start" style="white-space: pre;" direction="ltr">end()</text></g><g stroke-linecap="round"><g transform="translate(282.3334045410156 122.06354982890298) rotate(0 -0.333343505859375 12)"><path d="M0 0 C-0.11 4, -0.56 20, -0.67 24 M0 0 C-0.11 4, -0.56 20, -0.67 24" stroke="#087f5b" stroke-width="1" fill="none"></path></g><g transform="translate(282.3334045410156 122.06354982890298) rotate(0 -0.333343505859375 12)"><path d="M-4.46 12.61 C-2.95 17.14, -1.44 21.66, -0.67 24 M-4.46 12.61 C-3.59 15.23, -2.72 17.84, -0.67 24" stroke="#087f5b" stroke-width="1" fill="none"></path></g><g transform="translate(282.3334045410156 122.06354982890298) rotate(0 -0.333343505859375 12)"><path d="M3.75 12.84 C2 17.27, 0.24 21.71, -0.67 24 M3.75 12.84 C2.74 15.4, 1.72 17.97, -0.67 24" stroke="#087f5b" stroke-width="1" fill="none"></path></g></g><g stroke-linecap="round"><g transform="translate(35.66668701171875 123.06351931132485) rotate(0 -0.333343505859375 12)"><path d="M0 0 C-0.11 4, -0.56 20, -0.67 24 M0 0 C-0.11 4, -0.56 20, -0.67 24" stroke="#087f5b" stroke-width="1" fill="none"></path></g><g transform="translate(35.66668701171875 123.06351931132485) rotate(0 -0.333343505859375 12)"><path d="M-4.46 12.61 C-3.02 16.94, -1.57 21.28, -0.67 24 M-4.46 12.61 C-3.47 15.58, -2.48 18.55, -0.67 24" stroke="#087f5b" stroke-width="1" fill="none"></path></g><g transform="translate(35.66668701171875 123.06351931132485) rotate(0 -0.333343505859375 12)"><path d="M3.75 12.84 C2.07 17.08, 0.39 21.33, -0.67 24 M3.75 12.84 C2.6 15.75, 1.45 18.66, -0.67 24" stroke="#087f5b" stroke-width="1" fill="none"></path></g></g><g stroke-linecap="round" transform="translate(667.6815700375109 167.94519098417595) rotate(0 27.743259693731943 83.22981815769595)"><path d="M-1.07 -0.42 C14.71 -0.69, 29.07 -1.11, 57.07 0.03 M0.23 -0.27 C15.34 -0.73, 31.66 -0.28, 54.5 -0.74 M53.52 1.46 C53.93 40.93, 56.5 84.84, 57.17 165.23 M55.72 0.35 C54.78 45.74, 55.61 89.86, 54.95 166.74 M57.02 166.55 C43.59 165.43, 27.96 166.41, 0.42 168.27 M55.81 166.16 C40.83 165.77, 26.85 166.6, -0.59 166.6 M-0.03 167.52 C0.5 113.8, -2.96 63.68, -1.12 -0.65 M-0.92 166.71 C-0.95 99.61, -0.2 34.89, -0.41 0.76" stroke="#d9480f" stroke-width="1" fill="none"></path></g><g transform="translate(690.4738919313072 180.25888377371757) rotate(0 5.377926711728037 71.25752893039635)"><text x="0" y="15.35929398011325" font-family="Helvetica, Segoe UI Emoji" font-size="17.926422372426757px" fill="#d9480f" text-anchor="start" style="white-space: pre;" direction="ltr">3</text><text x="0" y="35.7185879602265" font-family="Helvetica, Segoe UI Emoji" font-size="17.926422372426757px" fill="#d9480f" text-anchor="start" style="white-space: pre;" direction="ltr"></text><text x="0" y="56.07788194033975" font-family="Helvetica, Segoe UI Emoji" font-size="17.926422372426757px" fill="#d9480f" text-anchor="start" style="white-space: pre;" direction="ltr">2</text><text x="0" y="76.437175920453" font-family="Helvetica, Segoe UI Emoji" font-size="17.926422372426757px" fill="#d9480f" text-anchor="start" style="white-space: pre;" direction="ltr"></text><text x="0" y="96.79646990056625" font-family="Helvetica, Segoe UI Emoji" font-size="17.926422372426757px" fill="#d9480f" text-anchor="start" style="white-space: pre;" direction="ltr">1</text><text x="0" y="117.1557638806795" font-family="Helvetica, Segoe UI Emoji" font-size="17.926422372426757px" fill="#d9480f" text-anchor="start" style="white-space: pre;" direction="ltr"></text><text x="0" y="137.51505786079275" font-family="Helvetica, Segoe UI Emoji" font-size="17.926422372426757px" fill="#d9480f" text-anchor="start" style="white-space: pre;" direction="ltr">0</text></g><g stroke-linecap="round"><g transform="translate(667.7921727800215 207.60782481117985) rotate(0 27.095054689798076 0.49500418277261815)"><path d="M0.26 -0.82 C9.36 -0.81, 46.02 -0.22, 55.26 0.1 M-1.07 1.36 C7.88 1.59, 45.22 2.02, 54.64 1.69" stroke="#d9480f" stroke-width="1" fill="none"></path></g></g><g stroke-linecap="round"><g transform="translate(669.8987638408212 249.7470005532141) rotate(0 27.173527499002944 -0.24332038418378943)"><path d="M0.43 0.3 C9.71 0.08, 46 -0.79, 55.15 -0.8 M-0.8 -0.59 C8.41 -0.71, 45.19 -0.06, 54.47 0.31" stroke="#d9480f" stroke-width="1" fill="none"></path></g></g><g stroke-linecap="round"><g transform="translate(671.5711789835975 287.5872835166738) rotate(0 27.134959938156953 0.6297155031468264)"><path d="M-0.46 0.91 C8.68 0.9, 45.7 0.04, 54.73 -0.11 M1.49 0.34 C10.51 0.53, 44.72 1.21, 53.84 1.37" stroke="#d9480f" stroke-width="1" fill="none"></path></g></g><g stroke-linecap="round" transform="translate(595.1222544127083 80.87403568032414) rotate(0 27.743259693731943 20.060507248406566)"><path d="M-0.19 -0.37 C18.09 -0.09, 36.45 1.1, 53.99 -1.63 M-0.55 0.28 C17.83 -0.74, 34.9 -1.15, 55.2 0.19 M54.84 -0.31 C54.86 13.86, 55.37 26.86, 56.04 39.57 M54.72 -0.55 C54.74 11.09, 56.61 19.84, 55.31 39.33 M53.75 39.3 C43 39.25, 29.79 38.78, 1.7 39.76 M55.21 40.27 C43 40.88, 33.37 41.53, -0.37 39.3 M-1.95 40.17 C1.84 29.1, 1.74 17.97, -0.85 1.44 M-0.03 40.51 C-0.9 31.53, 0.46 23.6, -0.65 0.13" stroke="#d9480f" stroke-width="1" fill="none"></path></g><g transform="translate(617.9144590770111 88.47139815858645) rotate(0 5.377926711728037 10.307692864145338)"><text x="0" y="15.615385728290793" font-family="Helvetica, Segoe UI Emoji" font-size="17.926422372426757px" fill="#d9480f" text-anchor="start" style="white-space: pre;" direction="ltr">4</text></g><g stroke-linecap="round" transform="translate(731.7044680053916 79.16672479538511) rotate(0 27.743259693731943 20.060507248406566)"><path d="M1.46 0 C11.12 -0.76, 25.38 0.46, 53.83 -1.4 M0.04 -0.38 C22.1 0.44, 44.15 0.33, 55.63 0.5 M56.4 -0.48 C53.72 9.98, 54.39 20.39, 53.87 39.21 M56.05 -0.99 C54.44 11.27, 55.47 21.89, 54.49 40 M55.61 39.07 C43.72 41.87, 30.48 39.75, 0.56 39.72 M54.62 40.86 C34.69 40.24, 15.38 41.27, -0.63 39.41 M-1.1 41.42 C-0.14 31.46, -0.78 20.26, -1.2 0.29 M0.83 39.53 C-0.19 26.11, -0.37 12.63, 0.7 0.53" stroke="#d9480f" stroke-width="1" fill="none"></path></g><g transform="translate(754.4966726696903 86.76408727365515) rotate(0 5.377926711728037 10.307692864145338)"><text x="0" y="15.615385728290793" font-family="Helvetica, Segoe UI Emoji" font-size="17.926422372426757px" fill="#d9480f" text-anchor="start" style="white-space: pre;" direction="ltr">4</text></g><g stroke-linecap="round"><g transform="translate(621.4650332265319 134.4380096960199) rotate(0 20.42173473691173 11.386887979771927)"><path d="M0.33 -0.65 C7.29 3.22, 35.03 19.51, 41.8 23.43 M-0.96 1.62 C5.93 5.14, 34.52 17.91, 41.4 21.68" stroke="#d9480f" stroke-width="1" fill="none"></path></g><g transform="translate(621.4650332265319 134.4380096960199) rotate(0 20.42173473691173 11.386887979771927)"><path d="M17.11 20.92 C26.43 20.18, 32.5 21.67, 43.39 20.02 M18.15 18.7 C25.69 19.77, 33.17 21.09, 42.16 21.36" stroke="#d9480f" stroke-width="1" fill="none"></path></g><g transform="translate(621.4650332265319 134.4380096960199) rotate(0 20.42173473691173 11.386887979771927)"><path d="M24.13 6.59 C31.35 10.22, 35.29 16.05, 43.39 20.02 M25.18 4.37 C30.32 10.34, 35.41 16.52, 42.16 21.36" stroke="#d9480f" stroke-width="1" fill="none"></path></g></g><g stroke-linecap="round"><g transform="translate(730.8761795029791 161.04455471126175) rotate(0 13.473510959248586 -13.889302275337059)"><path d="M0.8 0.18 C4.96 -4.55, 20.71 -23.51, 24.97 -27.96 M-0.24 -0.77 C4.29 -5.36, 22.85 -22.01, 27.19 -26.6" stroke="#d9480f" stroke-width="1" fill="none"></path></g><g transform="translate(730.8761795029791 161.04455471126175) rotate(0 13.473510959248586 -13.889302275337059)"><path d="M19.16 -11.06 C20.77 -14.01, 25.54 -18, 25.37 -25.35 M19.21 -10.15 C21 -14.71, 24.07 -21.99, 27.07 -27.04" stroke="#d9480f" stroke-width="1" fill="none"></path></g><g transform="translate(730.8761795029791 161.04455471126175) rotate(0 13.473510959248586 -13.889302275337059)"><path d="M10.17 -20.39 C14.5 -20.61, 21.95 -21.81, 25.37 -25.35 M10.22 -19.47 C15.09 -20.76, 21.25 -24.84, 27.07 -27.04" stroke="#d9480f" stroke-width="1" fill="none"></path></g></g><g transform="translate(526.788452632841 94.1694200172883) rotate(0 22.408027965533506 7.618729508281376)"><text x="0" y="12.23745901656275" font-family="Cascadia, Segoe UI Emoji" font-size="12.489292862693592px" fill="#d9480f" text-anchor="start" style="white-space: pre;" direction="ltr">push()</text></g><g transform="translate(810.8795131757788 91.18170900621726) rotate(0 18.82274349104813 7.618729508281376)"><text x="0" y="12.23745901656275" font-family="Cascadia, Segoe UI Emoji" font-size="12.489292862693587px" fill="#d9480f" text-anchor="start" style="white-space: pre;" direction="ltr">pop()</text></g><g transform="translate(746.1736908539199 179.96017519501856) rotate(0 18.82274349104813 7.618729508281376)"><text x="0" y="12.23745901656275" font-family="Cascadia, Segoe UI Emoji" font-size="12.489292862693587px" fill="#d9480f" text-anchor="start" style="white-space: pre;" direction="ltr">top()</text></g><g transform="translate(661.9313242603189 10) rotate(0 38.5 17.5)"><text x="0" y="25" font-family="Virgil, Segoe UI Emoji" font-size="27.619047619047596px" fill="#d9480f" text-anchor="start" style="white-space: pre;" direction="ltr">stack</text></g><g stroke-linecap="round" transform="translate(1130.997114602375 97.42075820195942) rotate(0 22.40760223376259 22.407602233762645)"><path d="M1.59 11.98 C1.59 11.98, 1.59 11.98, 1.59 11.98 M1.59 11.98 C1.59 11.98, 1.59 11.98, 1.59 11.98 M0.26 16.74 C3.26 12.4, 7.55 9.53, 15.62 3.5 M1.16 19.02 C5.04 15.18, 7.67 10.58, 14.21 3.35 M2.22 24.4 C7.08 16.11, 13.11 8.89, 22.12 1.76 M1.96 24.44 C6.64 18.67, 10.15 15.01, 21.07 2.23 M3.89 28.11 C8.43 20.94, 19.58 10.47, 25.31 0.94 M1.87 29.53 C9.83 21.57, 15.61 13.67, 27.42 1.16 M3.67 34.44 C16.08 21.01, 22.71 11.41, 32.27 2.51 M5.35 33.4 C13.52 22.21, 22.33 12.25, 30.87 2.14 M7.79 36.77 C18.23 24.65, 29.85 12.59, 33.57 5.26 M6.29 35.98 C17.4 23.33, 28.8 12.8, 34.05 6.01 M11.17 41.08 C17.4 32.44, 22.92 24.22, 37.49 6.92 M10.05 40.03 C16.06 32.54, 22.74 24.04, 37.06 7.32 M12.26 42.27 C16.1 36.52, 26.1 28.74, 41.55 11.45 M12.54 42.77 C16.87 36.89, 23.18 29.1, 40.21 9.94 M17.23 42.73 C23.98 35.69, 32.06 28.91, 42.73 14.12 M15.6 44.73 C23 37.2, 29.59 29.48, 42.48 13.4 M22.22 45.89 C29.77 37.06, 35.85 29.05, 45.6 16.08 M19.52 44.6 C24.8 39.33, 30.78 32.9, 44.87 17.7 M25.45 46.32 C30.79 41.51, 34.33 31.22, 44.5 24.87 M24.29 45.54 C27.79 42.22, 32.25 37.65, 44.75 23.18 M33.73 41.95 C36.14 39.48, 37.1 38.44, 39.58 34.89 M33.14 42.32 C36.09 39.67, 37.81 37.34, 39.41 35.94" stroke="#ced4da" stroke-width="0.5" fill="none"></path><path d="M14.14 2.97 C18.14 0.9, 23.39 -0.56, 27.86 0.69 C32.33 1.95, 38.24 6.63, 40.95 10.48 C43.66 14.34, 44.55 19.2, 44.11 23.81 C43.67 28.43, 41.76 34.64, 38.29 38.18 C34.83 41.73, 28.17 44.66, 23.31 45.09 C18.45 45.51, 12.91 43.56, 9.14 40.75 C5.38 37.94, 2 32.98, 0.7 28.24 C-0.6 23.49, -1.16 16.96, 1.34 12.27 C3.84 7.58, 12.77 1.95, 15.7 0.08 C18.63 -1.79, 18.85 0.68, 18.92 1.06 M13.01 2.22 C17.06 0.03, 24.34 -1.18, 29.21 -0.09 C34.07 1, 39.38 4.8, 42.2 8.76 C45.02 12.72, 46.6 18.97, 46.12 23.65 C45.64 28.34, 42.87 33.48, 39.32 36.87 C35.76 40.27, 29.7 43.13, 24.8 44.02 C19.9 44.91, 14.07 44.85, 9.91 42.2 C5.74 39.56, 1.23 32.94, -0.19 28.14 C-1.61 23.35, -0.62 17.55, 1.38 13.45 C3.38 9.36, 9.72 5.27, 11.83 3.56 C13.93 1.86, 13.49 3.34, 14.01 3.23" stroke="#000000" stroke-width="1" fill="none"></path></g><g stroke-opacity="0.6" fill-opacity="0.6" stroke-linecap="round" transform="translate(992.4924388721081 175.3202704570076) rotate(0 22.40760223376259 22.407602233762645)"><path d="M7.6 6.61 C7.6 6.61, 7.6 6.61, 7.6 6.61 M7.6 6.61 C7.6 6.61, 7.6 6.61, 7.6 6.61 M0.7 19.63 C6.3 14.21, 9.81 10.76, 17.19 4.73 M0.01 20.95 C4.33 16.52, 9.2 11.71, 16.79 2.88 M0.19 25.06 C7.75 21.12, 11.24 16.65, 21.65 3.93 M0.98 26.2 C8.49 16.52, 15.69 8.96, 22.36 1.35 M4.53 28.52 C11.64 20.99, 19.15 13.71, 24.57 1.35 M2.91 30.53 C9.86 21.08, 16.78 13.87, 26.28 3.43 M3.87 33.6 C14.52 22.83, 24.39 12.05, 29.51 6.19 M5.19 34.62 C12.47 24.48, 22.6 14.6, 30.64 4.52 M7.64 39.16 C17.36 25.69, 26.01 15.87, 36.33 5.02 M7.89 38.54 C14.19 28.51, 21.85 20.51, 35.25 5.04 M12.03 38.69 C19.2 31.45, 27.89 22.5, 38.74 7.59 M10.53 39.38 C18.72 31.55, 25.74 21.74, 37.41 7.5 M12.88 42.86 C23.58 34.23, 28.69 23.93, 40.36 12.36 M13.18 43.05 C20.34 33.91, 28.93 25.33, 41.16 12.31 M17.83 45.57 C26.15 34.16, 30.59 28.81, 42.32 15.11 M17.78 44.64 C26.32 35.56, 33.25 25, 43.16 15.67 M22.5 43.25 C28.49 36.4, 39.55 24.62, 44.15 18.72 M22.61 45.01 C27.46 36.78, 34.94 30.34, 44.71 17.64 M28.08 44.47 C33.09 39.56, 38.15 31.17, 45.26 23.03 M27.04 44.63 C34.61 36.38, 39.02 30.71, 45.57 25.27" stroke="#fa5252" stroke-width="0.5" fill="none"></path><path d="M20.78 0.95 C25.28 0.26, 31.8 1.45, 35.63 4.01 C39.46 6.56, 42.55 11.61, 43.76 16.29 C44.97 20.96, 45.01 27.48, 42.91 32.04 C40.8 36.61, 35.57 41.72, 31.14 43.69 C26.71 45.65, 20.76 45.22, 16.32 43.84 C11.89 42.46, 7.17 39.28, 4.51 35.41 C1.86 31.55, -0.07 25.41, 0.41 20.65 C0.88 15.89, 3.16 10.28, 7.38 6.86 C11.6 3.45, 21.68 1.1, 25.73 0.15 C29.79 -0.8, 31.74 0.89, 31.71 1.19 M18.42 1.45 C22.95 0.54, 29.2 1.23, 33.15 3.29 C37.09 5.34, 40.24 9.23, 42.1 13.78 C43.96 18.32, 45.41 25.74, 44.31 30.54 C43.2 35.34, 39.57 40.12, 35.47 42.57 C31.36 45.02, 24.68 45.97, 19.68 45.23 C14.68 44.5, 8.89 41.93, 5.47 38.15 C2.05 34.37, -0.92 27.26, -0.87 22.57 C-0.81 17.88, 2.54 13.64, 5.81 10.02 C9.07 6.41, 16.66 2.25, 18.74 0.89 C20.83 -0.48, 18.3 1.61, 18.3 1.85" stroke="#c92a2a" stroke-width="1" fill="none"></path></g><g stroke-opacity="0.6" fill-opacity="0.6" stroke-linecap="round" transform="translate(1249.4273807619977 183.0705731372941) rotate(0 22.407602233762617 22.407602233762645)"><path d="M4.47 10.51 C4.47 10.51, 4.47 10.51, 4.47 10.51 M4.47 10.51 C4.47 10.51, 4.47 10.51, 4.47 10.51 M2.71 20.81 C3.26 13.9, 8.47 13.21, 14.7 2.64 M1.52 19.46 C6.69 14.26, 12.04 7.97, 17.22 2.21 M3.18 24.45 C5.65 21.77, 12.45 12.53, 23.2 4.14 M2.91 25.3 C8.18 18.69, 14.62 12.12, 22.18 3.28 M4.84 28.8 C11.92 21.13, 19.49 12, 27.51 5.17 M2.42 31.33 C11.33 20.84, 20.41 9.72, 25.75 3.99 M6.52 34.7 C12.04 26.25, 17.84 19.07, 33.38 2.7 M4.72 34.23 C11.15 25.42, 19.46 17.72, 32.57 2.52 M3.82 40.81 C14.99 29.11, 24.16 15.96, 33.71 4.59 M6.49 38.84 C17.62 27.87, 27.75 14.25, 35.65 5.78 M9.19 41.6 C19.65 29.25, 31.08 17.85, 38.61 9.07 M9.64 40.45 C19.8 30.08, 29.78 18.8, 38.58 8.24 M15.65 40.52 C19.74 35.05, 26.23 29.08, 40.38 12.14 M15.33 41.24 C23.12 31.06, 33.04 20.55, 39.75 11.59 M16.85 43.49 C26.54 32.57, 35.46 25.82, 42.97 12.33 M17.15 44.03 C27.33 34.35, 35.89 23, 44.01 14.75 M21.9 47.21 C26.35 40.26, 35.06 33.5, 45.59 19.06 M22.26 45.95 C29.97 36.44, 36.34 28.41, 43.54 20.55 M26.9 42.49 C33.93 37.5, 38.55 32.49, 45.41 27.39 M28.11 43.92 C33.48 39.37, 37.72 33.72, 44.69 25.73" stroke="#fa5252" stroke-width="0.5" fill="none"></path><path d="M32.11 2.48 C36.3 4.04, 40.38 8.78, 42.25 12.89 C44.13 17, 44.43 22.52, 43.36 27.13 C42.29 31.74, 39.54 37.67, 35.84 40.54 C32.14 43.4, 26.18 44.56, 21.18 44.3 C16.18 44.05, 9.23 42.18, 5.84 38.98 C2.44 35.78, 1.06 29.85, 0.82 25.12 C0.58 20.39, 1.97 14.56, 4.4 10.6 C6.82 6.65, 9.88 2.06, 15.38 1.38 C20.87 0.7, 33.16 5.05, 37.38 6.52 C41.6 7.99, 40.83 10.17, 40.69 10.2 M23.52 -0.01 C28.03 0.2, 33.96 3.87, 37.3 7.3 C40.63 10.73, 42.93 15.8, 43.51 20.57 C44.1 25.35, 43.11 32.14, 40.82 35.94 C38.52 39.75, 34.12 42.43, 29.72 43.41 C25.32 44.38, 19.19 43.54, 14.42 41.78 C9.65 40.01, 3.47 36.83, 1.1 32.8 C-1.26 28.78, -1.28 22.32, 0.22 17.62 C1.73 12.91, 5.95 7.58, 10.15 4.58 C14.34 1.57, 23.32 0.07, 25.38 -0.41 C27.44 -0.9, 22.69 1.45, 22.5 1.7" stroke="#c92a2a" stroke-width="1" fill="none"></path></g><g stroke-linecap="round" transform="translate(925.8838709271115 272.73600770337134) rotate(0 22.40760223376259 22.407602233762645)"><path d="M6.45 6.93 C6.45 6.93, 6.45 6.93, 6.45 6.93 M6.45 6.93 C6.45 6.93, 6.45 6.93, 6.45 6.93 M-0.71 19.64 C7.44 12.68, 12.71 6.22, 14.06 0.95 M-0.23 21.77 C5.6 14.4, 11.16 7.17, 15.51 3.31 M2.12 25.73 C6.12 17.11, 11.91 11.99, 22.18 2.16 M1.58 24.78 C6.78 19.19, 12.09 12.64, 21.12 0.81 M1.69 31.3 C6.89 24.41, 15.99 15.84, 25.85 3.4 M1.48 29.43 C10.39 20.56, 17.74 12.24, 26.45 2.87 M5.25 33.83 C12.32 24.35, 23.72 14.21, 31.89 4.34 M4.06 35.39 C11.38 24.88, 20.59 15.46, 31.17 3.69 M4.6 39.16 C14.69 25.75, 23.96 16.79, 33.43 3.07 M7.34 36.77 C15.01 27.68, 22.95 18.17, 35.17 4.59 M7.74 38.08 C16.12 34.19, 22.56 26.83, 36.79 8.19 M8.7 40.09 C20.6 27.7, 30.68 17.33, 38.6 8.33 M12.27 42.83 C21.26 34.52, 26.88 23.66, 41.57 9.07 M13.49 40.98 C23.03 30.38, 33.43 18.6, 40.24 10.66 M17.65 42.47 C28.13 33.13, 38.96 21.47, 42.25 13.97 M17.47 42.89 C26.27 33.18, 33.08 23.61, 42.31 12.73 M23.33 43.17 C30.51 32.27, 39.4 25.15, 43.69 17.04 M22.19 43.61 C30.37 34.15, 40.02 23.11, 46.12 17.38 M26.36 42.52 C34.89 34.58, 40.94 27.85, 46.03 25.22 M28.81 42.9 C33.63 38.6, 36.38 32.51, 44.28 24.28" stroke="#ced4da" stroke-width="0.5" fill="none"></path><path d="M20.94 0.48 C25.25 -0.13, 30.91 2.34, 34.85 4.89 C38.78 7.43, 43.38 11.39, 44.55 15.72 C45.72 20.05, 43.83 26.49, 41.88 30.85 C39.92 35.22, 37.13 39.83, 32.81 41.92 C28.49 44.01, 20.76 44.42, 15.97 43.37 C11.18 42.32, 6.85 39.34, 4.08 35.61 C1.31 31.88, -1.05 25.82, -0.63 21 C-0.2 16.19, 2.81 10.36, 6.64 6.72 C10.47 3.07, 19.59 0.18, 22.35 -0.89 C25.12 -1.95, 23.31 -0.31, 23.23 0.35 M12.74 1.08 C16.88 -1.27, 22.75 -0.2, 27.25 0.82 C31.75 1.85, 37 3.41, 39.74 7.23 C42.48 11.05, 43.89 18.64, 43.7 23.75 C43.52 28.87, 41.57 34.6, 38.64 37.9 C35.72 41.2, 30.72 43.08, 26.15 43.56 C21.58 44.04, 15.52 43.13, 11.23 40.8 C6.94 38.48, 2.11 33.94, 0.41 29.6 C-1.3 25.27, -0.8 19.46, 1 14.79 C2.79 10.12, 9.06 3.49, 11.17 1.57 C13.27 -0.35, 13.53 2.59, 13.65 3.27" stroke="#000000" stroke-width="1" fill="none"></path></g><g stroke-linecap="round" transform="translate(1048.5274664610888 276.0679083489413) rotate(0 22.40760223376259 22.407602233762645)"><path d="M9.65 4.41 C9.65 4.41, 9.65 4.41, 9.65 4.41 M9.65 4.41 C9.65 4.41, 9.65 4.41, 9.65 4.41 M4.37 17.88 C7.94 14.36, 12.3 11.21, 15.65 2.21 M4.26 17.85 C7.71 11.97, 11.02 8.33, 17.2 1.91 M5.55 22.93 C9.07 18.86, 11.87 10.78, 24.65 0.41 M3.26 22.3 C8.71 17.98, 12.96 13.36, 22.27 1.31 M5.27 28.14 C9.84 21.41, 20.22 10.49, 25.28 3.38 M3.83 29.19 C12.86 19.14, 19.82 9.24, 27.28 3.36 M7.15 35.26 C9.89 28.13, 15.4 20.03, 31.83 5.33 M5.75 33.21 C14.95 23.68, 23.05 14.15, 29.98 3.82 M6.77 38.06 C18.94 25.66, 26.99 16.8, 33.28 6.95 M7.28 37.35 C17.87 25.94, 27.21 14.41, 33.7 7.19 M9.19 38.07 C18.72 33.91, 23.83 26.53, 38.05 7.59 M9.83 39.82 C18.35 31.08, 24.08 23.62, 38.49 7.1 M14.45 43.99 C25.34 31.85, 33.5 16.62, 41.47 10.73 M13.83 43.71 C19.19 35.44, 25.63 29.04, 41.85 10.93 M17.6 43.84 C29.31 31.27, 38.5 22.09, 43.99 15.15 M17.96 44.36 C27.1 32.05, 36.8 21.1, 43.23 15.27 M22.99 45.23 C27.37 36.6, 36.26 30.08, 46.53 19.32 M23.83 43.8 C28.31 37.63, 34.31 31.85, 44.61 19.51 M27.69 43.73 C34.41 36.87, 39.47 30.14, 44.76 25.66 M28.56 44.42 C33.94 38.58, 38.7 31.16, 45.14 24.3" stroke="#ced4da" stroke-width="0.5" fill="none"></path><path d="M25.67 0.51 C30.33 0.81, 36.43 4.49, 39.46 8.09 C42.48 11.7, 43.82 17.47, 43.82 22.15 C43.83 26.82, 42.17 32.52, 39.47 36.15 C36.77 39.79, 32.07 42.86, 27.63 43.96 C23.19 45.07, 16.97 44.82, 12.82 42.8 C8.67 40.78, 4.76 36.38, 2.72 31.86 C0.67 27.34, -0.58 20.24, 0.56 15.68 C1.71 11.12, 5.19 6.93, 9.59 4.48 C13.99 2.03, 23.65 1.57, 26.97 1 C30.28 0.42, 29.63 0.63, 29.49 1.04 M18.06 0.81 C22.38 -0.71, 28.35 -0.24, 32.41 1.83 C36.46 3.9, 40.33 8.87, 42.4 13.26 C44.47 17.65, 46.13 23.44, 44.84 28.18 C43.55 32.91, 38.57 38.9, 34.67 41.66 C30.76 44.41, 26.21 45.47, 21.42 44.69 C16.63 43.92, 9.62 40.38, 5.93 37.01 C2.25 33.65, -0.46 29.03, -0.7 24.51 C-0.94 19.98, 1.69 13.76, 4.5 9.86 C7.31 5.97, 13.91 2.35, 16.15 1.13 C18.39 -0.1, 18 2.05, 17.94 2.52" stroke="#000000" stroke-width="1" fill="none"></path></g><g transform="translate(1148.7413690414458 107.50363829500475) rotate(0 5 9.5)"><text x="0" y="15" font-family="Helvetica, Segoe UI Emoji" font-size="15.915981906792245px" fill="#000000" text-anchor="start" style="white-space: pre;" direction="ltr">d</text></g><g transform="translate(1011.4968724852547 187.98270235692053) rotate(0 5 9.5)"><text x="0" y="15" font-family="Helvetica, Segoe UI Emoji" font-size="15.915981906792233px" fill="#c92a2a" text-anchor="start" style="white-space: pre;" direction="ltr">b</text></g><g transform="translate(1269.3905033141982 194.88736379271313) rotate(0 2.5 9.5)"><text x="0" y="15" font-family="Helvetica, Segoe UI Emoji" font-size="15.915981906792245px" fill="#c92a2a" text-anchor="start" style="white-space: pre;" direction="ltr">f</text></g><g transform="translate(943.408295766706 286.0867155826045) rotate(0 5 9.5)"><text x="0" y="15" font-family="Helvetica, Segoe UI Emoji" font-size="15.915981906792233px" fill="#000000" text-anchor="start" style="white-space: pre;" direction="ltr">a</text></g><g transform="translate(1067.5382857469597 286.4027069271242) rotate(0 4.5 9.5)"><text x="0" y="15" font-family="Helvetica, Segoe UI Emoji" font-size="15.915981906792245px" fill="#000000" text-anchor="start" style="white-space: pre;" direction="ltr">c</text></g><g transform="translate(1090.0295144822373 30.87308102562065) rotate(0 39 17.5)"><text x="0" y="25" font-family="Virgil, Segoe UI Emoji" font-size="27.619047619047596px" fill="#000000" text-anchor="start" style="white-space: pre;" direction="ltr">map /</text></g><g transform="translate(1173.7855923306242 30.15586003252656) rotate(0 23.5 17.5)"><text x="0" y="25" font-family="Virgil, Segoe UI Emoji" font-size="27.619047619047596px" fill="#c92a2a" text-anchor="start" style="white-space: pre;" direction="ltr">set</text></g><g transform="translate(1188.9789637005492 106.492077782038) rotate(0 21 9.5)"><text x="0" y="15" font-family="Helvetica, Segoe UI Emoji" font-size="15.915981906792245px" fill="#000000" text-anchor="start" style="white-space: pre;" direction="ltr">=&gt; 15</text></g><g transform="translate(1049.169149247424 187.4445313953197) rotate(0 21 9.5)"><text x="0" y="15" font-family="Helvetica, Segoe UI Emoji" font-size="15.915981906792245px" fill="#c92a2a" text-anchor="start" style="white-space: pre;" direction="ltr">=&gt; 18</text></g><g transform="translate(1304.2883639865422 194.82543654668643) rotate(0 21 9.5)"><text x="0" y="15" font-family="Helvetica, Segoe UI Emoji" font-size="15.915981906792245px" fill="#c92a2a" text-anchor="start" style="white-space: pre;" direction="ltr">=&gt; 25</text></g><g transform="translate(980.1218208434061 283.6349785214361) rotate(0 16.5 9.5)"><text x="0" y="15" font-family="Helvetica, Segoe UI Emoji" font-size="15.915981906792245px" fill="#000000" text-anchor="start" style="white-space: pre;" direction="ltr">=&gt; 8</text></g><g transform="translate(1103.4552123054598 285.06354995000765) rotate(0 16.5 9.5)"><text x="0" y="15" font-family="Helvetica, Segoe UI Emoji" font-size="15.915981906792245px" fill="#000000" text-anchor="start" style="white-space: pre;" direction="ltr">=&gt; 5</text></g><g stroke-linecap="round" transform="translate(1189.0503704737075 266.9979217912455) rotate(0 22.40760223376259 22.407602233762645)"><path d="M6.44 6.92 C6.44 6.92, 6.44 6.92, 6.44 6.92 M6.44 6.92 C6.44 6.92, 6.44 6.92, 6.44 6.92 M-0.4 18.28 C5.31 13.61, 13.16 7.91, 15.47 0.1 M-0.23 20.22 C4.07 14.54, 9.77 10.82, 15.77 2.11 M2.02 23.54 C7.24 15.61, 15.36 10.38, 21.29 1.78 M3.19 24.37 C6.6 18.36, 11.65 13.19, 20.84 1.47 M2.23 26.5 C10.58 22.58, 18.22 12.39, 24.84 1.64 M3.18 28.93 C10.12 21.79, 14.88 15.15, 25.81 3.65 M3.9 35.2 C9.27 28.64, 14.52 19.57, 28.22 3.74 M3.82 34.23 C11.67 26.08, 19.57 18.25, 30.36 5.18 M7.58 40.03 C15.44 24.84, 23.8 15.69, 33.7 3.95 M5.71 37.5 C11.98 29.34, 19.73 21.15, 35.53 5.89 M11.41 41.42 C17.65 28.87, 29.56 16.87, 38.55 8.63 M8.98 40.79 C19.44 29.2, 29.49 17.3, 37.81 6.85 M14.09 41.07 C21.4 34.61, 24.47 25.03, 39.1 10.53 M13.58 41.35 C19.68 34.06, 25.42 28.5, 39.52 10.45 M15.55 45.06 C27.03 34.48, 32.99 25.1, 40.93 16.28 M16.17 43.06 C27.6 32.98, 35.98 21.01, 42.28 15.13 M21.15 45.11 C28.96 36.81, 35.79 29.52, 44.38 17.8 M19.62 44.83 C27.71 38.57, 32.22 31.1, 44.76 17.01 M25.1 43.68 C34.24 37.9, 40.48 29.64, 47.38 23 M26.73 43.97 C33.6 36.91, 40.47 28.52, 44.85 21.82 M34.04 44.34 C36.33 37.31, 39.98 32.97, 47.29 29.41 M33.18 41.97 C38.09 37.96, 41.96 32.59, 45.88 28.76" stroke="#ced4da" stroke-width="0.5" fill="none"></path><path d="M18.76 0.08 C22.98 -0.76, 29.21 1.05, 33.34 3.62 C37.47 6.18, 41.78 10.92, 43.55 15.47 C45.31 20.02, 45.87 26.62, 43.94 30.92 C42.01 35.21, 36.19 39.09, 31.97 41.26 C27.75 43.43, 23.31 44.67, 18.61 43.94 C13.92 43.2, 6.92 40.58, 3.78 36.85 C0.65 33.11, -0.61 26.47, -0.22 21.54 C0.17 16.62, 2.39 10.81, 6.13 7.28 C9.88 3.75, 19.19 1.39, 22.25 0.36 C25.3 -0.66, 24.58 0.91, 24.46 1.13 M29.98 0.13 C34.41 1.46, 39.85 5.99, 42.45 10.3 C45.05 14.62, 46.3 21.14, 45.56 26.02 C44.81 30.9, 41.78 36.22, 37.98 39.56 C34.18 42.91, 27.71 46.26, 22.75 46.1 C17.78 45.94, 11.99 41.87, 8.19 38.62 C4.39 35.37, 0.73 31.06, -0.07 26.61 C-0.86 22.16, 0.99 16.29, 3.42 11.92 C5.85 7.56, 9.79 1.95, 14.5 0.42 C19.21 -1.1, 29.06 2.64, 31.7 2.77 C34.33 2.9, 30.55 1.19, 30.32 1.22" stroke="#000000" stroke-width="1" fill="none"></path></g><g stroke-linecap="round" transform="translate(1311.6939660076848 269.21872827991456) rotate(0 22.407602233762617 22.407602233762645)"><path d="M2.37 12.66 C2.37 12.66, 2.37 12.66, 2.37 12.66 M2.37 12.66 C2.37 12.66, 2.37 12.66, 2.37 12.66 M0.27 18.24 C7.25 14.66, 13.21 6.88, 14.08 3.25 M2.22 18.34 C4.24 16.64, 8.23 11.96, 16.09 4.27 M1.23 24.89 C7.92 18.24, 17.3 9.03, 20.95 1.83 M2.07 25.62 C7.97 18.31, 14.74 10.65, 20.63 2.83 M1.67 29.71 C10.45 24.98, 13.01 17.24, 27.3 -0.54 M4.1 30.24 C10.78 21.03, 18.02 13.47, 29.31 -0.59 M7.84 32.09 C17.55 20.54, 24.76 9.03, 31.31 2.25 M6.87 32.87 C12.58 27.31, 18.58 20.16, 32.75 3.13 M10.15 36.29 C13.92 25.7, 23.75 17.1, 34.18 4.18 M7.62 35.51 C14.39 28.33, 21.13 21.13, 36.12 6.03 M11.38 38.72 C21.6 27.44, 32.4 15.74, 39.25 9.23 M10.74 40.14 C17.92 32.05, 24.76 24.52, 37.47 7.46 M12.83 44.28 C24.48 28.54, 32.98 17.03, 41.45 8.16 M13.11 43.27 C21.93 32.16, 32.53 19.71, 41.37 10.18 M18.63 46.18 C26.74 33.54, 36.04 22.18, 44.87 16.66 M16.63 45.08 C27.15 33.19, 35.78 23.54, 43.72 14.7 M21.14 46.49 C27.6 38.62, 35.07 29.52, 44.81 18.77 M20.86 46.23 C28.77 36.67, 35.48 29.06, 44.03 20.1 M24.54 48.2 C32.7 40.69, 38.37 34.12, 45.42 25.54 M24.82 47.22 C29.86 42.3, 33.58 35.95, 44.24 24.87" stroke="#ced4da" stroke-width="0.5" fill="none"></path><path d="M28.66 0 C33.19 1.09, 38.66 5.61, 41.33 9.9 C44 14.18, 45.23 21.08, 44.67 25.72 C44.1 30.36, 41.58 34.4, 37.94 37.72 C34.3 41.03, 27.7 45.34, 22.82 45.63 C17.94 45.91, 12.26 42.47, 8.67 39.43 C5.07 36.39, 2.31 31.82, 1.25 27.38 C0.18 22.93, 0.25 17.02, 2.27 12.77 C4.29 8.52, 8.53 3.83, 13.36 1.87 C18.18 -0.1, 27.93 0.93, 31.23 1 C34.54 1.06, 33.47 1.68, 33.17 2.26 M20.96 0.43 C25.48 0.4, 31.68 3.1, 35.48 6.35 C39.28 9.6, 42.75 15.28, 43.76 19.94 C44.78 24.59, 43.63 30.31, 41.57 34.31 C39.52 38.31, 36.01 42.47, 31.43 43.95 C26.86 45.42, 18.75 44.83, 14.14 43.15 C9.53 41.47, 5.89 38.08, 3.77 33.88 C1.65 29.68, 0.84 22.51, 1.41 17.95 C1.97 13.39, 3.46 9.51, 7.16 6.52 C10.86 3.53, 21.19 0.92, 23.6 0.01 C26.01 -0.89, 21.95 0.89, 21.64 1.09" stroke="#000000" stroke-width="1" fill="none"></path></g><g transform="translate(1206.574795313302 279.23753551357777) rotate(0 5 9.5)"><text x="0" y="15" font-family="Helvetica, Segoe UI Emoji" font-size="15.915981906792233px" fill="#000000" text-anchor="start" style="white-space: pre;" direction="ltr">e</text></g><g transform="translate(1330.7047852935557 279.5535268580975) rotate(0 5 9.5)"><text x="0" y="15" font-family="Helvetica, Segoe UI Emoji" font-size="15.915981906792245px" fill="#000000" text-anchor="start" style="white-space: pre;" direction="ltr">g</text></g><g transform="translate(1243.2883203900021 276.7857984524094) rotate(0 21 9.5)"><text x="0" y="15" font-family="Helvetica, Segoe UI Emoji" font-size="15.915981906792245px" fill="#000000" text-anchor="start" style="white-space: pre;" direction="ltr">=&gt; 17</text></g><g transform="translate(1366.6217118520558 278.21436988098094) rotate(0 21 9.5)"><text x="0" y="15" font-family="Helvetica, Segoe UI Emoji" font-size="15.915981906792245px" fill="#000000" text-anchor="start" style="white-space: pre;" direction="ltr">=&gt; 40</text></g><g stroke-linecap="round"><g transform="translate(990.0857973296195 228.80502729722002) rotate(0 -15.441979666860504 15.94739606259941)"><path d="M-1 1.14 C-5.92 6.25, -25.8 24.79, -30.57 29.78 M0.67 0.69 C-4.31 6.07, -26.46 26.44, -31.56 31.2" stroke="#000000" stroke-width="1" fill="none"></path></g><g transform="translate(990.0857973296195 228.80502729722002) rotate(0 -15.441979666860504 15.94739606259941)"><path d="M-19.91 12.04 C-24.36 17.56, -24.24 19.1, -31.37 30.35 M-22.45 12.08 C-25.12 17.34, -26.7 22.67, -31.41 30.68" stroke="#000000" stroke-width="1" fill="none"></path></g><g transform="translate(990.0857973296195 228.80502729722002) rotate(0 -15.441979666860504 15.94739606259941)"><path d="M-9.95 22.76 C-16.41 25.96, -18.38 25.24, -31.37 30.35 M-12.49 22.8 C-18.02 24.94, -22.52 27.13, -31.41 30.68" stroke="#000000" stroke-width="1" fill="none"></path></g></g><g stroke-linecap="round"><g transform="translate(1033.978963700549 229.80167425246236) rotate(0 13.537025702531878 15.134038330965723)"><path d="M-0.62 0.75 C3.69 5.38, 20.97 24.24, 25.56 28.94 M1.26 0.1 C5.94 5.38, 23.52 25.2, 27.69 30.17" stroke="#000000" stroke-width="1" fill="none"></path></g><g transform="translate(1033.978963700549 229.80167425246236) rotate(0 13.537025702531878 15.134038330965723)"><path d="M11.55 18.67 C14.27 23.71, 19.1 24.61, 27.7 28.74 M9.36 19.6 C15.4 23.91, 20.01 25.37, 26.91 30.82" stroke="#000000" stroke-width="1" fill="none"></path></g><g transform="translate(1033.978963700549 229.80167425246236) rotate(0 13.537025702531878 15.134038330965723)"><path d="M21.83 9.76 C21.78 17.22, 23.76 20.6, 27.7 28.74 M19.64 10.69 C22.99 17.26, 24.9 21.07, 26.91 30.82" stroke="#000000" stroke-width="1" fill="none"></path></g></g><g stroke-linecap="round"><g transform="translate(1115.883783734031 134.5635499500072) rotate(0 -33.20918018865797 16.619179010550624)"><path d="M-0.52 -0.68 C-11.49 5.17, -55.59 28.06, -66.8 33.92 M1.4 1.58 C-9.64 7.17, -56.67 26.9, -67.82 32.1" stroke="#000000" stroke-width="1" fill="none"></path></g><g transform="translate(1115.883783734031 134.5635499500072) rotate(0 -33.20918018865797 16.619179010550624)"><path d="M-47.28 11.13 C-50.01 13.83, -53.7 19, -66.82 32.94 M-45.3 10.91 C-51.37 16.98, -56.52 21.02, -67.03 32.12" stroke="#000000" stroke-width="1" fill="none"></path></g><g transform="translate(1115.883783734031 134.5635499500072) rotate(0 -33.20918018865797 16.619179010550624)"><path d="M-39.01 29.91 C-43.34 28.56, -48.8 29.71, -66.82 32.94 M-37.03 29.69 C-44.96 31.19, -52.1 30.71, -67.03 32.12" stroke="#000000" stroke-width="1" fill="none"></path></g></g><g stroke-linecap="round"><g transform="translate(1185.1694980197453 144.9207037062847) rotate(0 30.888483433780607 15.51363355100807)"><path d="M-0.04 -0.29 C10.49 5.2, 52.9 27.08, 63.3 32.51 M-1.53 -1.48 C8.95 3.73, 52.4 25.67, 62.95 30.99" stroke="#000000" stroke-width="1" fill="none"></path></g><g transform="translate(1185.1694980197453 144.9207037062847) rotate(0 30.888483433780607 15.51363355100807)"><path d="M32.68 29.33 C44.18 28.91, 52.94 30.17, 62.58 31 M33.37 26.85 C40.78 28.01, 47.55 28.78, 63.85 30.18" stroke="#000000" stroke-width="1" fill="none"></path></g><g transform="translate(1185.1694980197453 144.9207037062847) rotate(0 30.888483433780607 15.51363355100807)"><path d="M41.93 11.01 C50.53 16.19, 56.46 23.07, 62.58 31 M42.61 8.53 C47.76 14.28, 52.25 19.57, 63.85 30.18" stroke="#000000" stroke-width="1" fill="none"></path></g></g><g stroke-linecap="round"><g transform="translate(1248.6219298347567 231.94454229445455) rotate(0 -11.550962802673268 12.632129010144354)"><path d="M0.02 0.44 C-3.79 4.64, -18.62 21.52, -22.41 25.64 M-1.43 -0.37 C-5.39 3.45, -19.46 20.08, -23.12 23.97" stroke="#000000" stroke-width="1" fill="none"></path></g><g transform="translate(1248.6219298347567 231.94454229445455) rotate(0 -11.550962802673268 12.632129010144354)"><path d="M-16.29 8.94 C-17.71 13.75, -20.5 20.38, -21.59 22.85 M-16.56 8.16 C-18.87 13.5, -21.05 17.89, -23.49 24.13" stroke="#000000" stroke-width="1" fill="none"></path></g><g transform="translate(1248.6219298347567 231.94454229445455) rotate(0 -11.550962802673268 12.632129010144354)"><path d="M-7.68 16.59 C-12 18.84, -17.69 22.91, -21.59 22.85 M-7.95 15.82 C-12.84 18.87, -17.65 20.92, -23.49 24.13" stroke="#000000" stroke-width="1" fill="none"></path></g></g><g stroke-linecap="round"><g transform="translate(1293.3838927253817 233.84927513485627) rotate(0 13.316200527282746 10.223470059987221)"><path d="M-0.57 0.77 C3.92 3.99, 22.72 15.97, 27.2 19.2 M1.33 0.13 C5.69 3.49, 22.53 16.75, 26.53 20.31" stroke="#000000" stroke-width="1" fill="none"></path></g><g transform="translate(1293.3838927253817 233.84927513485627) rotate(0 13.316200527282746 10.223470059987221)"><path d="M11.91 15.44 C14.75 16.07, 21.06 17.74, 28.13 21.87 M11.02 14.26 C15.27 15.81, 18.42 16.92, 27.14 20.98" stroke="#000000" stroke-width="1" fill="none"></path></g><g transform="translate(1293.3838927253817 233.84927513485627) rotate(0 13.316200527282746 10.223470059987221)"><path d="M19.19 6.67 C19.69 10.07, 23.66 14.56, 28.13 21.87 M18.3 5.49 C20.77 9.22, 22.1 12.53, 27.14 20.98" stroke="#000000" stroke-width="1" fill="none"></path></g></g><g transform="translate(25.47900148421695 450.94051760718776) rotate(0 88 9.5)"><text x="0" y="15" font-family="Helvetica, Segoe UI Emoji" font-size="15.915981906792233px" fill="#000000" text-anchor="start" style="white-space: pre;" direction="ltr">credits: phemsi-a | Paula</text></g></svg>